<svg xmlns="http://www.w3.org/2000/svg" viewBox="0 0 490 490" width="512" height="512"><path d="M490 245c0 84.68-42.96 159.33-108.28 203.34a245.076 245.076 0 01-49.2 25.57C305.34 484.3 275.84 490 245 490c-35.84 0-69.89-7.7-100.57-21.52a245.35 245.35 0 01-46.62-27.6C38.41 396.17 0 325.07 0 245c0-25.17 3.79-49.45 10.84-72.3C41.69 72.68 134.86 0 245 0s203.31 72.68 234.16 172.7C486.21 195.55 490 219.83 490 245z" fill="#55d485"/><ellipse cx="367.161" cy="269.136" rx="63.268" ry="26.063" fill="#10995b"/><path d="M457.58 304.57c-.929 4.936-3.128 9.525-6.64 13.14-3.421 3.521-7.694 6.109-12.133 8.141-9.974 4.566-20.923 6.852-31.696 8.611-11.24 1.835-22.595 2.954-33.946 3.831-11.43.883-22.872 1.603-34.322 2.178-22.853 1.148-45.72 1.941-68.568 3.221-22.573 1.265-45.196 2.823-67.538 6.413-10.727 1.724-21.521 3.855-31.71 7.717-4.58 1.736-9.749 3.842-13.182 7.469-1.259 1.33-1.673 2.356-1.224 4.142.542 2.156 1.678 4.169 2.864 6.029 2.875 4.507 6.557 8.494 10.356 12.232a134.599 134.599 0 003.289 3.122c.617.568.949.711 1.732 1.045 4.621 1.973 9.778 2.723 14.729 3.356 5.453.697 10.94 1.105 16.428 1.415 9.709.547 19.441.727 29.16 1.007 21.86.631 43.775 1.413 65.405 4.859 20.765 3.308 41.832 9.414 59.024 21.931 8.46 6.159 15.839 13.807 21.379 22.704.155.25.308.501.46.752.284.471.278.266-.03.658-.315.401-1.074.717-1.512 1.007a248.461 248.461 0 01-10.176 6.369 245.442 245.442 0 01-28.345 14.396 247.933 247.933 0 01-7.147 2.931c-.456.179-1.487.761-1.785.504-.357-.308-.602-1.325-.833-1.76a24.962 24.962 0 00-2.009-3.19c-5.946-8.013-15.834-12.829-24.903-16.352-10.201-3.963-20.859-6.607-31.579-8.723-11.082-2.187-22.256-3.816-33.458-5.241-11.014-1.401-22.044-2.677-33.049-4.151-10.784-1.444-21.628-3.048-32.108-6.046-8.706-2.49-17.35-6.12-23.905-12.542-1.616-1.583-3.096-3.339-4.57-5.052-3.508-4.074-6.829-8.325-9.769-12.83-5.361-8.214-9.667-17.615-9.86-27.582-.208-10.758 4.874-20.559 13.182-27.246 8.257-6.646 18.678-10.252 28.862-12.702 10.677-2.569 21.63-4.03 32.552-5.068 22.483-2.136 45.15-2.484 67.719-2.699 22.883-.219 45.766-.114 68.648-.485 22.6-.366 45.353-.941 67.757-4.175 5.495-.793 10.976-1.768 16.357-3.144 5.014-1.282 10.132-2.84 14.582-5.548 1.909-1.162 3.857-2.588 4.935-4.599 1.01-1.885 1.497-4.357 1.199-6.475-.658-4.686-5.23-7.887-9.035-10.038-4.513-2.552-9.459-4.287-14.435-5.685-.427-.12-5.903-1.797-6.084-1.396 0-.787.345-1.699.507-2.462a1576.5 1576.5 0 012.286-10.549c.028-.128.446-2.419.557-2.419.015.326 4.416 1.143 4.822 1.246 4.745 1.198 9.432 2.707 13.93 4.639 8.251 3.544 16.441 8.776 20.666 16.989 2.55 4.948 3.258 10.658 2.164 16.105z" fill="#10995b"/><path d="M479.16 172.7H10.84C41.69 72.68 134.86 0 245 0s203.31 72.68 234.16 172.7z" fill="#bce6f5"/><path d="M235.31 311.07l-90.88 157.41a245.35 245.35 0 01-46.62-27.6L22.87 311.07C-6.44 260.3 5.19 201.66 40.82 164.48c21.76-22.7 52.47-37.39 88.27-37.39 94.42 0 153.43 102.21 106.22 183.98z" fill="#f75454"/><path d="M192.986 249.739c0 30.093-20.804 55.322-48.812 62.102a63.418 63.418 0 01-15.091 1.801c-35.277 0-63.891-28.613-63.891-63.903 0-35.278 28.613-63.891 63.891-63.891 5.198 0 10.254.618 15.091 1.801 28.009 6.781 48.812 32.01 48.812 62.09z" fill="#bce6f5"/><path d="M192.986 249.739c0 30.093-20.804 55.322-48.812 62.102-28.008-6.78-48.799-32.01-48.799-62.102 0-30.08 20.791-55.309 48.799-62.089 28.009 6.78 48.812 32.009 48.812 62.089z" fill="#fff"/><g><path d="M367.161 269.136l77.693-134.568C479.384 74.76 436.222.001 367.161.001c-69.06 0-112.223 74.76-77.693 134.567l77.693 134.568z" fill="#f75454"/><path d="M413.897 89.709c0 22.011-15.216 40.464-35.702 45.423a46.382 46.382 0 01-11.038 1.317c-25.803 0-46.731-20.928-46.731-46.741 0-25.803 20.928-46.731 46.731-46.731 3.802 0 7.5.452 11.038 1.317 20.486 4.96 35.702 23.414 35.702 45.415z" fill="#bce6f5"/><path d="M413.897 89.709c0 22.011-15.216 40.464-35.702 45.423-20.486-4.959-35.693-23.413-35.693-45.423 0-22.001 15.207-40.455 35.693-45.414 20.486 4.959 35.702 23.413 35.702 45.414z" fill="#fff"/></g></svg>